HIERARCHY
ROOT Hips
{
	OFFSET -32.860001 56.121803 44.745396
	CHANNELS 6 Xposition Yposition Zposition Zrotation Xrotation Yrotation
	JOINT Chest
	{
		OFFSET -0.637402 0.831600 5.390099
		CHANNELS 6 Xposition Yposition Zposition Zrotation Xrotation Yrotation
		JOINT Chest2
		{
			OFFSET 0.000000 0.000000 4.429901
			CHANNELS 6 Xposition Yposition Zposition Zrotation Xrotation Yrotation
			JOINT Neck
			{
				OFFSET 0.000000 0.000000 10.301395
				CHANNELS 6 Xposition Yposition Zposition Zrotation Xrotation Yrotation
				JOINT Head
				{
					OFFSET 0.000000 0.000000 2.173897
					CHANNELS 6 Xposition Yposition Zposition Zrotation Xrotation Yrotation
					End Site
					{
						OFFSET 0.000000 0.000000 8.298004
					}
				}
			}
			JOINT LeftCollar
			{
				OFFSET 2.142401 -0.572701 5.717800
				CHANNELS 6 Xposition Yposition Zposition Zrotation Xrotation Yrotation
				JOINT LeftShoulder
				{
					OFFSET 5.674000 0.000000 0.000000
					CHANNELS 6 Xposition Yposition Zposition Zrotation Xrotation Yrotation
					JOINT LeftElbow
					{
						OFFSET 0.000000 0.000000 -12.238701
						CHANNELS 6 Xposition Yposition Zposition Zrotation Xrotation Yrotation
						JOINT LeftWrist
						{
							OFFSET 0.000000 0.000000 -10.253700
							CHANNELS 6 Xposition Yposition Zposition Zrotation Xrotation Yrotation
							End Site
							{
								OFFSET 0.000000 0.000000 -2.173901
							}
						}
					}
				}
			}
			JOINT RightCollar
			{
				OFFSET -2.882599 -1.580101 6.695801
				CHANNELS 6 Xposition Yposition Zposition Zrotation Xrotation Yrotation
				JOINT RightShoulder
				{
					OFFSET -4.235600 0.000000 0.000000
					CHANNELS 6 Xposition Yposition Zposition Zrotation Xrotation Yrotation
					JOINT RightElbow
					{
						OFFSET 0.000000 0.000000 -10.709900
						CHANNELS 6 Xposition Yposition Zposition Zrotation Xrotation Yrotation
						JOINT RightWrist
						{
							OFFSET 0.000000 0.000000 -11.716801
							CHANNELS 6 Xposition Yposition Zposition Zrotation Xrotation Yrotation
							End Site
							{
								OFFSET 0.000000 0.000000 -2.173901
							}
						}
					}
				}
			}
		}
	}
	JOINT LeftHip
	{
		OFFSET 2.279499 0.210400 -2.475502
		CHANNELS 6 Xposition Yposition Zposition Zrotation Xrotation Yrotation
		JOINT LeftKnee
		{
			OFFSET 0.000000 -0.000004 -20.742800
			CHANNELS 6 Xposition Yposition Zposition Zrotation Xrotation Yrotation
			JOINT LeftAnkle
			{
				OFFSET 0.000000 0.000000 -16.666000
				CHANNELS 6 Xposition Yposition Zposition Zrotation Xrotation Yrotation
				End Site
				{
					OFFSET 0.000000 -8.310898 0.000000
				}
			}
		}
	}
	JOINT RightHip
	{
		OFFSET -1.961899 0.232300 -2.727402
		CHANNELS 6 Xposition Yposition Zposition Zrotation Xrotation Yrotation
		JOINT RightKnee
		{
			OFFSET 0.000000 -0.000004 -20.526800
			CHANNELS 6 Xposition Yposition Zposition Zrotation Xrotation Yrotation
			JOINT RightAnkle
			{
				OFFSET 0.000000 0.000000 -16.867300
				CHANNELS 6 Xposition Yposition Zposition Zrotation Xrotation Yrotation
				End Site
				{
					OFFSET 0.000000 -7.186401 0.000000
				}
			}
		}
	}
}
MOTION
Frames: 10
Frame Time: 0.041667
1.847904 55.084400 36.528084 737.398643 -6.453435 1.388481 -0.637407 0.831594 5.390107 -17.392564 1.954175 11.130136 0.000002 0.000001 4.429899 -7.062259 -0.666283 -1.455816 0.000000 -0.000005 10.301400 376.238539 10.632938 -11.052738 -0.000000 0.000003 2.173898 -358.171486 3.854967 2.293092 2.142399 -0.572706 5.717805 -26.388089 4.844634 1.104603 5.673998 0.000002 0.000000 143.773720 225.249489 116.854729 0.000005 -0.000002 -12.238703 124.411732 -362.922921 -367.230831 -0.000005 0.000000 -10.253702 -78.559046 48.570623 27.854538 -2.882606 -1.580102 6.695796 7.788385 14.985971 7.102500 -4.235611 -0.000003 -0.000004 85.282302 -30.606467 115.173068 0.000004 -0.000002 -10.709902 -126.520170 -61.351116 -150.561958 0.000003 -0.000005 -11.716797 268.867610 -18.439404 -36.749041 2.279499 0.210397 -2.475493 329.590888 15.906597 -0.040902 -0.000003 -0.000004 -20.742805 -406.973434 14.049866 69.793482 -0.000004 0.000004 -16.666006 441.012583 -0.883784 43.391393 -1.961900 0.232282 -2.727397 -410.397736 -38.326982 -34.130271 0.000001 -0.000007 -20.526802 433.764496 68.805229 -58.416641 0.000003 0.000009 -16.867302 -33.451726 11.906107 -9.178399
1.696308 55.112213 36.540287 737.697860 -6.454923 1.158272 -0.637403 0.831596 5.390098 -17.677168 1.750181 11.318139 -0.000001 0.000009 4.429894 -7.160950 -0.664975 -1.469909 -0.000003 -0.000008 10.301403 376.242009 10.616817 -10.871492 0.000004 -0.000004 2.173892 -358.117446 3.813920 2.265732 2.142398 -0.572699 5.717803 -26.430843 4.860740 1.300429 5.674000 -0.000000 -0.000006 143.863195 225.330318 116.876981 0.000005 -0.000004 -12.238697 124.252889 -362.911173 -367.200150 0.000001 -0.000001 -10.253702 -77.953017 48.447628 27.859360 -2.882605 -1.580099 6.695804 7.954717 15.220983 6.949598 -4.235609 -0.000006 0.000002 85.145002 -30.262331 115.510465 0.000000 0.000003 -10.709902 -126.423523 -61.079861 -150.376573 0.000004 0.000007 -11.716805 269.028584 -18.477366 -36.536321 2.279499 0.210395 -2.475500 329.160313 16.047601 0.076311 0.000000 -0.000007 -20.742802 -406.806340 13.305168 69.413512 0.000001 -0.000001 -16.666002 441.579216 -1.078303 43.809790 -1.961893 0.232292 -2.727399 -410.676271 -38.407967 -34.282482 0.000001 -0.000001 -20.526796 432.279285 69.408485 -56.838041 0.000008 0.000000 -16.867302 -33.170421 12.318652 -9.171831
1.542305 55.135506 36.553791 737.994836 -6.553621 0.650418 -0.637407 0.831595 5.390100 -17.968583 1.572907 11.816013 -0.000000 -0.000006 4.429891 -7.201190 -0.654042 -1.483337 0.000001 0.000001 10.301397 376.267362 10.555052 -10.739397 -0.000000 0.000000 2.173899 -358.126735 3.816313 2.290516 2.142401 -0.572702 5.717794 -26.549572 4.884244 1.379132 5.673992 0.000001 -0.000006 144.071817 225.543174 116.999173 -0.000000 -0.000000 -12.238697 124.036030 -362.910927 -367.197090 0.000004 0.000003 -10.253696 -77.327577 48.298156 27.792335 -2.882603 -1.580096 6.695796 8.057692 15.371954 6.722281 -4.235611 -0.000002 -0.000006 84.997572 -29.835643 115.840008 -0.000001 -0.000001 -10.709914 -126.275581 -60.796566 -150.107573 0.000002 -0.000010 -11.716799 269.182946 -18.519858 -36.382160 2.279498 0.210394 -2.475502 328.595483 16.125112 0.498314 0.000003 -0.000005 -20.742807 -406.819864 12.267161 69.043623 -0.000004 0.000006 -16.665997 442.413373 -1.251638 44.333484 -1.961892 0.232294 -2.727399 -410.670506 -38.669307 -34.047048 0.000000 -0.000010 -20.526802 430.673644 69.985868 -55.235914 0.000001 0.000003 -16.867302 -32.893610 12.690830 -8.938663
1.390110 55.151909 36.565689 738.211599 -6.600396 0.655097 -0.637403 0.831602 5.390100 -18.162690 1.490100 11.750874 0.000003 0.000007 4.429897 -7.228321 -0.632902 -1.492955 -0.000001 0.000001 10.301390 376.311458 10.512753 -10.576296 -0.000001 -0.000000 2.173891 -358.137718 3.833836 2.306490 2.142398 -0.572701 5.717803 -26.696042 4.939416 1.485962 5.674000 0.000004 -0.000006 144.208256 225.737479 117.031617 0.000007 0.000003 -12.238697 123.911707 -362.927538 -367.230448 0.000009 0.000004 -10.253698 -77.091519 48.238638 27.793824 -2.882605 -1.580097 6.695802 8.180547 15.531681 6.499656 -4.235609 -0.000002 0.000004 84.789094 -29.388675 116.190274 0.000004 0.000002 -10.709889 -126.126560 -60.504206 -149.792387 0.000004 0.000003 -11.716801 269.352608 -18.498345 -36.200692 2.279499 0.210405 -2.475501 328.184251 16.423642 0.488594 0.000000 -0.000002 -20.742802 -407.036572 10.998080 68.634262 0.000001 0.000000 -16.666004 443.499428 -1.424092 44.983882 -1.961895 0.232300 -2.727407 -410.895656 -38.565560 -34.266905 -0.000000 0.000001 -20.526802 429.001805 70.574036 -53.624177 0.000008 0.000005 -16.867302 -32.631632 12.959931 -8.826834
1.237400 55.161999 36.575390 738.363612 -6.688978 0.398839 -0.637403 0.831600 5.390103 -18.300099 1.381555 11.908779 -0.000002 0.000003 4.429906 -7.249380 -0.611299 -1.498579 -0.000000 0.000001 10.301390 376.367247 10.454456 -10.418864 -0.000000 -0.000003 2.173895 -358.133019 3.843015 2.314045 2.142401 -0.572697 5.717798 -26.796275 4.987163 1.510946 5.673990 0.000006 -0.000002 144.315408 225.939270 117.110792 0.000005 -0.000005 -12.238700 123.865289 -362.963274 -367.278997 -0.000003 0.000001 -10.253695 -77.283823 48.263326 27.910438 -2.882600 -1.580095 6.695792 8.254711 15.625598 6.363963 -4.235602 -0.000004 -0.000013 84.583546 -29.038819 116.454534 0.000004 0.000000 -10.709908 -125.978482 -60.261953 -149.486845 0.000003 -0.000005 -11.716803 269.494457 -18.436615 -36.080037 2.279499 0.210402 -2.475500 327.659228 16.617645 0.777864 -0.000001 -0.000002 -20.742804 -407.129900 9.946857 68.179133 -0.000001 -0.000000 -16.665998 444.425219 -1.533479 45.356704 -1.961892 0.232301 -2.727402 -410.796701 -38.655059 -34.152124 -0.000000 -0.000006 -20.526798 427.544434 70.998109 -52.304957 0.000002 0.000003 -16.867300 -32.456157 13.119749 -8.888489
1.086113 55.167202 36.580593 738.447541 -6.759834 0.191744 -0.637401 0.831597 5.390091 -18.367362 1.272168 11.972731 -0.000002 -0.000003 4.429899 -7.260985 -0.582381 -1.499302 -0.000003 -0.000003 10.301390 376.438663 10.399372 -10.274878 0.000000 0.000002 2.173903 -358.146980 3.837828 2.320136 2.142403 -0.572703 5.717797 -26.835936 5.006419 1.529445 5.674002 0.000001 0.000001 144.130488 225.859521 117.031945 0.000003 -0.000008 -12.238695 124.164178 -363.040455 -367.317847 0.000005 0.000004 -10.253694 -77.586694 48.318636 28.013845 -2.882606 -1.580096 6.695799 8.366747 15.727212 6.304405 -4.235610 -0.000013 0.000006 84.505737 -28.831393 116.736047 0.000003 0.000002 -10.709908 -125.639950 -60.136708 -149.076269 0.000001 -0.000003 -11.716801 269.666086 -18.332245 -35.957268 2.279498 0.210398 -2.475499 327.126446 16.804045 1.051907 0.000000 -0.000002 -20.742802 -407.123343 9.138935 67.727070 -0.000003 0.000002 -16.666000 445.160175 -1.587917 45.505019 -1.961894 0.232294 -2.727407 -410.692308 -38.705883 -34.087606 0.000008 -0.000007 -20.526798 426.398656 71.315392 -51.296278 0.000003 -0.000002 -16.867302 -32.354268 13.224910 -9.029313
0.931606 55.168903 36.582394 738.493987 -6.818478 -0.026331 -0.637405 0.831594 5.390100 -18.403021 1.184307 12.036936 0.000001 -0.000005 4.429900 -7.290531 -0.561984 -1.502440 0.000000 0.000004 10.301394 376.571716 10.296936 -10.195670 -0.000001 -0.000006 2.173901 -358.121244 3.656465 2.334270 2.142399 -0.572687 5.717794 -26.823225 4.984290 1.539754 5.673998 0.000005 -0.000008 143.758243 225.582543 116.824566 0.000003 0.000002 -12.238698 124.684407 -363.155940 -367.346944 0.000009 0.000004 -10.253693 -77.944623 48.387396 28.128970 -2.882605 -1.580088 6.695793 8.477256 15.846797 6.325674 -4.235613 -0.000010 -0.000004 84.397840 -28.812719 117.020948 0.000006 0.000000 -10.709904 -125.420387 -59.937813 -148.840996 0.000005 0.000005 -11.716797 269.860173 -18.240193 -35.922977 2.279497 0.210386 -2.475500 326.630547 16.938842 1.314472 -0.000002 -0.000005 -20.742805 -407.059959 8.594513 67.310271 -0.000005 -0.000005 -16.665998 445.675499 -1.597137 45.504995 -1.961892 0.232283 -2.727398 -410.584009 -38.759449 -34.036182 0.000000 -0.000001 -20.526796 425.578241 71.536820 -50.594227 0.000001 -0.000002 -16.867302 -32.320684 13.254586 -9.280813
0.774803 55.167503 36.580093 738.503877 -6.811886 -0.218671 -0.637407 0.831595 5.390096 -18.402155 1.054471 12.022423 -0.000002 0.000002 4.429897 -7.359191 -0.554145 -1.505359 0.000001 -0.000007 10.301395 376.714986 10.197673 -10.121093 -0.000001 -0.000004 2.173900 -358.117009 3.664260 2.317452 2.142401 -0.572711 5.717804 -26.779722 4.978723 1.637086 5.673994 0.000000 0.000004 143.345658 225.315073 116.511744 -0.000001 0.000004 -12.238692 125.168831 -363.228777 -367.347026 0.000005 0.000000 -10.253698 -78.394350 48.455807 28.230540 -2.882601 -1.580104 6.695800 8.559176 15.961124 6.410243 -4.235609 0.000003 0.000000 84.357228 -28.867081 117.255032 -0.000006 0.000000 -10.709910 -125.234018 -59.781777 -148.653931 0.000008 0.000005 -11.716801 270.052839 -18.120792 -35.935193 2.279497 0.210391 -2.475495 326.300949 16.975737 1.457980 -0.000002 -0.000001 -20.742798 -406.941633 8.461305 67.012796 -0.000001 -0.000002 -16.666008 445.871252 -1.600472 45.330497 -1.961896 0.232297 -2.727400 -410.541525 -38.813834 -34.098111 0.000000 -0.000007 -20.526802 425.261211 71.607082 -50.321883 0.000007 -0.000009 -16.867300 -32.339416 13.172147 -9.828460
0.613113 55.165504 36.570793 738.480818 -6.792551 -0.439368 -0.637408 0.831595 5.390094 -18.374840 0.943693 12.029666 0.000001 -0.000005 4.429901 -7.450678 -0.570505 -1.510102 -0.000002 -0.000001 10.301399 376.825416 10.089865 -10.058776 -0.000003 0.000000 2.173898 -358.086136 3.655257 2.278396 2.142399 -0.572702 5.717798 -26.695460 4.971164 1.773535 5.674000 0.000003 -0.000008 142.952540 225.125412 116.165699 0.000000 -0.000005 -12.238702 125.516529 -363.225635 -367.255993 0.000001 0.000001 -10.253700 -78.126941 48.313937 28.029531 -2.882600 -1.580101 6.695802 8.659155 16.083576 6.449504 -4.235613 -0.000004 0.000008 84.249400 -28.960989 117.538922 -0.000002 0.000000 -10.709909 -125.075790 -59.535317 -148.553978 0.000003 0.000006 -11.716797 270.211463 -18.061289 -36.090689 2.279496 0.210397 -2.475502 326.150030 16.924483 1.533909 -0.000001 -0.000004 -20.742805 -406.767709 8.744622 66.863372 -0.000004 0.000002 -16.666004 445.721070 -1.618638 44.994103 -1.961895 0.232289 -2.727409 -410.492402 -38.884212 -34.176296 -0.000002 0.000005 -20.526800 425.062179 71.641062 -50.136372 0.000003 0.000003 -16.867300 -32.340768 13.062518 -10.395107
0.448009 55.163307 36.554184 738.438416 -6.792050 -0.697234 -0.637402 0.831597 5.390099 -18.334914 0.875221 12.082319 -0.000001 0.000001 4.429897 -7.563439 -0.587753 -1.518538 -0.000002 -0.000004 10.301386 376.962156 9.965327 -10.010674 -0.000002 0.000001 2.173899 -358.076492 3.639246 2.248111 2.142400 -0.572697 5.717791 -26.592474 4.898333 1.913117 5.673996 0.000000 0.000000 142.638570 224.986663 115.858914 0.000004 0.000000 -12.238703 125.752033 -363.199243 -367.194303 0.000008 0.000004 -10.253701 -78.211137 48.234673 27.912376 -2.882602 -1.580092 6.695786 8.770651 16.199247 6.500113 -4.235611 -0.000001 0.000008 84.241012 -29.021320 117.831528 -0.000001 0.000006 -10.709910 -124.845927 -59.415105 -148.355698 0.000006 -0.000010 -11.716799 270.222009 -18.336756 -36.260627 2.279502 0.210402 -2.475498 326.129812 16.828961 1.574658 0.000002 -0.000007 -20.742805 -406.755278 8.977099 66.867415 -0.000001 -0.000004 -16.665997 445.633397 -1.761776 44.869937 -1.961890 0.232297 -2.727400 -410.556879 -38.927488 -34.298017 0.000003 -0.000003 -20.526793 424.898255 71.715545 -49.911061 0.000004 0.000001 -16.867300 -32.314694 12.962217 -10.728352
